<svg width="18" height="18" viewBox="0 0 18 18" fill="none" xmlns="http://www.w3.org/2000/svg">
<g clip-path="url(#clip0_598_333)">
<path d="M18.0225 3.7575C17.3574 4.05281 16.6444 4.25109 15.8949 4.34109C16.6599 3.88265 17.2477 3.15703 17.5233 2.29359C16.8089 2.71687 16.0144 3.02484 15.172 3.19078C14.497 2.47078 13.5352 2.02219 12.4706 2.02219C10.4259 2.02219 8.76798 3.67875 8.76798 5.72344C8.76798 6.01312 8.80173 6.29578 8.86501 6.56719C5.78813 6.4125 3.06141 4.93875 1.23469 2.69859C0.915475 3.24703 0.734069 3.88265 0.734069 4.56047C0.734069 5.84437 1.38657 6.97781 2.38079 7.64297C1.77329 7.62328 1.20235 7.45594 0.703131 7.1789C0.703131 7.19437 0.703131 7.20984 0.703131 7.22531C0.703131 9.01969 1.98001 10.5145 3.67173 10.8562C3.36235 10.9406 3.03469 10.9856 2.69719 10.9856C2.45813 10.9856 2.2261 10.9631 1.99969 10.9181C2.47219 12.3877 3.83907 13.4606 5.45766 13.4902C4.19204 14.483 2.59594 15.0736 0.860631 15.0736C0.5611 15.0736 0.267194 15.0567 -0.0210876 15.0216C1.61579 16.0734 3.56204 16.6852 5.65313 16.6852C12.4622 16.6852 16.1859 11.0447 16.1859 6.15375C16.1859 5.99344 16.1817 5.83172 16.1761 5.67422C16.8989 5.1525 17.5261 4.5 18.0225 3.7575Z" fill="#D6D6D6"/>
</g>
<defs>
<clipPath id="clip0_598_333">
<rect width="18" height="18" fill="white"/>
</clipPath>
</defs>
</svg>
