<svg width="18" height="18" viewBox="0 0 18 18" fill="none" xmlns="http://www.w3.org/2000/svg">
<path d="M9 1.79999C5.0238 1.79999 1.8 5.02379 1.8 8.99999C1.8 12.9762 5.0238 16.2 9 16.2C12.9762 16.2 16.2 12.9762 16.2 8.99999C16.2 5.02379 12.9762 1.79999 9 1.79999ZM6.2976 5.04179C6.8028 5.04179 7.1394 5.37839 7.1394 5.82719C7.1394 6.27599 6.8028 6.61259 6.2418 6.61259C5.7366 6.61319 5.4 6.27599 5.4 5.82719C5.4 5.37839 5.7366 5.04179 6.2976 5.04179ZM7.2 12H5.4V7.19999H7.2V12ZM13.2 12H11.5056V9.37679C11.5056 8.65139 11.0538 8.48399 10.8846 8.48399C10.7154 8.48399 10.1502 8.59559 10.1502 9.37679C10.1502 9.48839 10.1502 12 10.1502 12H8.4V7.19999H10.1508V7.86959C10.3764 7.47899 10.8282 7.19999 11.6754 7.19999C12.5226 7.19999 13.2 7.86959 13.2 9.37679V12Z" fill="#D6D6D6"/>
</svg>
