<svg width="50" height="48" viewBox="0 0 50 48" fill="none" xmlns="http://www.w3.org/2000/svg">
<g clip-path="url(#clip0_571_556)">
<path d="M24.6489 0C11.0374 0 0 11.0029 0 24.5762C0 35.4346 7.06265 44.6468 16.8564 47.8965C18.0883 48.124 18.5405 47.3634 18.5405 46.7142C18.5405 46.1282 18.5177 44.1922 18.507 42.1387C11.6497 43.6253 10.2027 39.239 10.2027 39.239C9.08148 36.3983 7.46592 35.643 7.46592 35.643C5.22953 34.1177 7.6345 34.149 7.6345 34.149C10.1097 34.3224 11.413 36.6816 11.413 36.6816C13.6114 40.4387 17.1793 39.3525 18.5858 38.7246C18.8071 37.1362 19.4459 36.052 20.1508 35.4383C14.6759 34.8168 8.92066 32.7095 8.92066 23.2926C8.92066 20.6095 9.88354 18.4171 11.4603 16.696C11.2044 16.077 10.3607 13.5774 11.6991 10.1922C11.6991 10.1922 13.769 9.53168 18.4793 12.7114C20.4455 12.1668 22.5541 11.8937 24.6489 11.8844C26.7436 11.8937 28.8539 12.1668 30.8237 12.7114C35.5283 9.53168 37.5953 10.1922 37.5953 10.1922C38.937 13.5774 38.0929 16.077 37.837 16.696C39.4174 18.4171 40.3738 20.6095 40.3738 23.2926C40.3738 32.7319 34.6075 34.8103 29.1188 35.4187C30.0029 36.1814 30.7907 37.677 30.7907 39.9699C30.7907 43.2582 30.7621 45.9048 30.7621 46.7142C30.7621 47.3682 31.2058 48.1346 32.4552 47.8932C42.2436 44.6399 49.2973 35.431 49.2973 24.5762C49.2973 11.0029 38.2615 0 24.6489 0ZM9.2318 35.0093C9.17751 35.1314 8.98485 35.168 8.80934 35.0842C8.63056 35.004 8.53014 34.8376 8.58811 34.7151C8.64117 34.5893 8.83424 34.5543 9.01261 34.6386C9.1918 34.7187 9.29384 34.8868 9.2318 35.0093ZM10.4442 36.088C10.3267 36.1966 10.0969 36.1462 9.94097 35.9744C9.77974 35.8031 9.74953 35.574 9.86872 35.4637C9.98995 35.355 10.2128 35.4059 10.3744 35.5772C10.5357 35.7506 10.5671 35.9781 10.4442 36.088ZM11.276 37.4681C11.125 37.5727 10.8781 37.4746 10.7254 37.2561C10.5744 37.0375 10.5744 36.7754 10.7287 36.6704C10.8817 36.5654 11.125 36.6599 11.2797 36.8768C11.4303 37.099 11.4303 37.3611 11.276 37.4681ZM12.6828 39.0665C12.5477 39.215 12.2599 39.1751 12.0493 38.9725C11.8338 38.7743 11.7738 38.493 11.9093 38.3445C12.046 38.1955 12.3354 38.2375 12.5477 38.4385C12.7615 38.6363 12.8268 38.9195 12.6828 39.0665ZM14.5008 39.6061C14.4412 39.7986 14.1641 39.8861 13.8849 39.8043C13.6061 39.72 13.4236 39.4945 13.48 39.3C13.5379 39.1063 13.8163 39.0151 14.0975 39.1026C14.3759 39.1865 14.5588 39.4103 14.5008 39.6061ZM16.5699 39.8349C16.5768 40.0376 16.34 40.2057 16.047 40.2094C15.7523 40.2159 15.5139 40.0519 15.5106 39.8524C15.5106 39.6477 15.7421 39.4813 16.0368 39.4764C16.3298 39.4707 16.5699 39.6335 16.5699 39.8349ZM18.6024 39.7573C18.6375 39.955 18.4339 40.1581 18.1428 40.2122C17.8567 40.2643 17.5918 40.1422 17.5555 39.9461C17.52 39.7434 17.7273 39.5403 18.013 39.4878C18.3045 39.4374 18.5653 39.5562 18.6024 39.7573Z" fill="#161614"/>
</g>
<defs>
<clipPath id="clip0_571_556">
<rect width="49.2973" height="48" fill="white"/>
</clipPath>
</defs>
</svg>
