<svg width="36" height="48" viewBox="0 0 36 48" fill="none" xmlns="http://www.w3.org/2000/svg">
<g clip-path="url(#clip0_568_315)">
<path d="M11.326 37.106C11.326 37.106 9.51525 38.1708 12.6147 38.5311C16.3695 38.9643 18.2886 38.9021 22.4265 38.1102C22.4265 38.1102 23.5143 38.8 25.0337 39.3974C15.7576 43.4174 4.04018 39.1646 11.326 37.106Z" fill="#5382A1"/>
<path d="M10.1925 31.8602C10.1925 31.8602 8.16155 33.3803 11.2633 33.7047C15.2743 34.1231 18.4419 34.1574 23.9231 33.0901C23.9231 33.0901 24.6813 33.8673 25.8734 34.2923C14.6581 37.6085 2.1663 34.5538 10.1925 31.8602Z" fill="#5382A1"/>
<path d="M19.7481 22.9616C22.0337 25.6225 19.1476 28.0169 19.1476 28.0169C19.1476 28.0169 24.9512 24.9875 22.2858 21.1939C19.7965 17.6561 17.8876 15.8983 28.222 9.83777C28.222 9.83777 12.0004 13.9345 19.7481 22.9616Z" fill="#E76F00"/>
<path d="M32.0164 40.9861C32.0164 40.9861 33.3564 42.1026 30.5407 42.9663C25.1864 44.6064 8.25571 45.1017 3.55244 43.0316C1.86173 42.2879 5.03228 41.2558 6.02962 41.0392C7.06974 40.8111 7.66413 40.8536 7.66413 40.8536C5.78389 39.5143 -4.48896 43.4835 2.44603 44.6202C21.3588 47.7216 36.9221 43.2237 32.0164 40.9861Z" fill="#5382A1"/>
<path d="M12.1968 26.4249C12.1968 26.4249 3.58479 28.4933 9.14708 29.2444C11.4957 29.5623 16.1775 29.4904 20.5385 29.1209C24.1025 28.8169 27.6813 28.1705 27.6813 28.1705C27.6813 28.1705 26.4245 28.7148 25.5153 29.3425C16.77 31.6683 -0.124471 30.5863 4.73922 28.2074C8.85244 26.1968 12.1968 26.4249 12.1968 26.4249Z" fill="#5382A1"/>
<path d="M27.6457 35.1568C36.5358 30.4856 32.4254 25.9966 29.5564 26.6013C28.8531 26.7493 28.5396 26.8776 28.5396 26.8776C28.5396 26.8776 28.8007 26.4641 29.2993 26.2851C34.9751 24.2673 39.3402 32.2361 27.467 35.3923C27.467 35.3924 27.6046 35.268 27.6457 35.1568Z" fill="#5382A1"/>
<path d="M22.2859 0.0515137C22.2859 0.0515137 27.2093 5.03167 17.6162 12.6897C9.92345 18.8328 15.862 22.3355 17.613 26.3374C13.1226 22.2407 9.82728 18.6344 12.038 15.2779C15.2829 10.351 24.2724 7.96219 22.2859 0.0515137Z" fill="#E76F00"/>
<path d="M13.0703 47.8149C21.6037 48.3672 34.7076 47.5084 35.018 43.4255C35.018 43.4255 34.4214 44.9733 27.9656 46.2025C20.6822 47.5885 11.6992 47.4267 6.37122 46.5384C6.37134 46.5383 7.46191 47.4512 13.0703 47.8149Z" fill="#5382A1"/>
</g>
<defs>
<clipPath id="clip0_568_315">
<rect width="35.122" height="48" fill="white"/>
</clipPath>
</defs>
</svg>
