<svg width="43" height="48" viewBox="0 0 43 48" fill="none" xmlns="http://www.w3.org/2000/svg">
<g clip-path="url(#clip0_571_480)">
<path d="M21.027 47.8489L3.89175 43.0589L0.0732422 -0.0691528H42.0321L38.2095 43.0521L21.027 47.8489Z" fill="#264DE4"/>
<path d="M34.937 40.3063L38.2036 3.45721H21.0527V44.1824L34.937 40.3063Z" fill="#2965F1"/>
<path d="M8.82709 19.4528L9.29788 24.7422H21.0527V19.4528H8.82709Z" fill="#EBEBEB"/>
<path d="M7.8811 8.7467L8.35861 14.0362H21.0526V8.7467H7.8811Z" fill="#EBEBEB"/>
<path d="M21.0527 33.1901L21.0296 33.1963L15.1796 31.6056L14.8056 27.387H9.53259L10.2685 35.6923L21.0285 38.7002L21.0527 38.6934V33.1901Z" fill="#EBEBEB"/>
<path d="M33.2445 19.4527L34.1928 8.7467H21.0345V14.0362H28.4362L27.9583 19.4527H21.0345V24.7421H27.5027L26.893 31.6022L21.0345 33.1945V38.6975L31.803 35.6922L31.882 34.7986L33.1164 20.8731L33.2445 19.4527Z" fill="white"/>
</g>
<defs>
<clipPath id="clip0_571_480">
<rect width="42.1053" height="48" fill="white"/>
</clipPath>
</defs>
</svg>
