<svg width="48" height="48" viewBox="0 0 48 48" fill="none" xmlns="http://www.w3.org/2000/svg">
<g clip-path="url(#clip0_598_354)">
<path d="M29.43 17.337L24.6255 21.807L20.1675 12.8145L22.4745 7.6425C23.0745 6.5925 24.0105 6.6045 24.5955 7.6425L29.43 17.337Z" fill="#FFA000"/>
<path d="M20.1675 12.8145L24.6255 21.807L6.67047 38.5095L20.1675 12.8145Z" fill="#F57F17"/>
<path d="M34.6845 10.5045C35.5425 9.67947 36.4305 9.96147 36.657 11.13L41.331 38.2875L25.839 47.5875C25.299 47.8875 23.859 48.0165 23.859 48.0165C23.859 48.0165 22.548 47.8605 22.0485 47.5665L6.67047 38.5095L34.6845 10.5045Z" fill="#FFCA28"/>
<path d="M20.1675 12.8145L6.672 38.5095L12.6825 0.95697C12.9045 -0.21303 13.5705 -0.32553 14.1645 0.70647L20.1675 12.8145Z" fill="#FFA000"/>
</g>
<defs>
<clipPath id="clip0_598_354">
<rect width="48" height="48" fill="white"/>
</clipPath>
</defs>
</svg>
