<svg width="48" height="48" viewBox="0 0 48 48" fill="none" xmlns="http://www.w3.org/2000/svg">
<g clip-path="url(#clip0_571_553)">
<path d="M47.0951 21.8613L26.1376 0.905335C24.9315 -0.301778 22.9739 -0.301778 21.7663 0.905335L17.4144 5.25716L22.9349 10.7776C24.2179 10.3442 25.6888 10.6349 26.7116 11.6577C27.7391 12.6868 28.0278 14.1704 27.5838 15.4576L32.9041 20.7779C34.1913 20.3345 35.6765 20.6215 36.7045 21.6511C38.1413 23.0874 38.1413 25.4152 36.7045 26.8525C35.2673 28.2897 32.9394 28.2897 31.5016 26.8525C30.4209 25.7707 30.1539 24.1833 30.7011 22.8519L25.7394 17.8902L25.7389 30.9473C26.0891 31.1211 26.4199 31.3523 26.7116 31.643C28.1484 33.0792 28.1484 35.4071 26.7116 36.8454C25.2744 38.2821 22.9455 38.2821 21.5103 36.8454C20.0736 35.4071 20.0736 33.0792 21.5103 31.643C21.8653 31.2886 22.2761 31.0205 22.7142 30.8404V17.6617C22.2761 17.4826 21.8658 17.2161 21.5103 16.859C20.4217 15.772 20.1599 14.1746 20.7177 12.838L15.2762 7.39541L0.906157 21.7644C-0.301483 22.9725 -0.301483 24.9302 0.906157 26.1373L21.8637 47.0937C23.0703 48.3009 25.0274 48.3009 26.2355 47.0937L47.0951 26.2347C48.3022 25.0271 48.3022 23.0684 47.0951 21.8613Z" fill="#DE4C36"/>
</g>
<defs>
<clipPath id="clip0_571_553">
<rect width="48" height="48" fill="white"/>
</clipPath>
</defs>
</svg>
