<svg width="43" height="48" viewBox="0 0 43 48" fill="none" xmlns="http://www.w3.org/2000/svg">
<g clip-path="url(#clip0_571_411)">
<path d="M42.5183 0L38.6447 42.9525L21.2331 47.7306L3.86942 42.9593L0 0H42.5183Z" fill="#E44D26"/>
<path d="M21.2592 44.0785L35.3286 40.2175L38.6388 3.51257H21.2592V44.0785Z" fill="#F16529"/>
<path d="M13.7292 14.0502H21.2591V8.78137H7.91196L8.03937 10.1949L9.34762 24.7142H21.2591V19.4455H14.2156L13.7292 14.0502Z" fill="#EBEBEB"/>
<path d="M14.9288 27.3488H9.58548L10.3312 35.6215L21.2347 38.6176L21.2592 38.6109V33.1292L21.2358 33.1353L15.3077 31.5509L14.9288 27.3488Z" fill="#EBEBEB"/>
<path d="M21.2407 24.7143H27.7952L27.1774 31.5475L21.2407 33.1336V38.6151L32.1528 35.6215L32.2329 34.7313L33.4837 20.8604L33.6136 19.4456H21.2407V24.7143Z" fill="white"/>
<path d="M21.2407 14.0373V14.0502H34.0979L34.2047 12.8659L34.4472 10.1949L34.5745 8.78137H21.2407V14.0373Z" fill="white"/>
</g>
<defs>
<clipPath id="clip0_571_411">
<rect width="42.6667" height="48" fill="white"/>
</clipPath>
</defs>
</svg>
