<svg width="50" height="48" viewBox="0 0 50 48" fill="none" xmlns="http://www.w3.org/2000/svg">
<g clip-path="url(#clip0_571_536)">
<path d="M45.2117 36.9927C42.5413 36.9266 40.4717 37.1919 38.7359 37.9208C38.2352 38.1195 37.434 38.1197 37.3672 38.7492C37.6344 39.0145 37.6677 39.4453 37.9014 39.8097C38.3022 40.4723 39.0029 41.3673 39.6372 41.8313C40.3381 42.3615 41.0392 42.8916 41.7734 43.3556C43.0753 44.1511 44.5441 44.6149 45.8125 45.4103C46.5471 45.8739 47.2811 46.4708 48.0155 46.9679C48.3828 47.2327 48.6163 47.6637 49.0837 47.8294V47.73C48.85 47.4317 48.7832 47.0009 48.5497 46.6696C48.2161 46.3382 47.8821 46.0398 47.5483 45.7084C46.5802 44.4161 45.3786 43.2893 44.0767 42.3615C43.0087 41.6324 40.6719 40.6382 40.238 39.412C40.238 39.412 40.2045 39.379 40.1712 39.3459C40.9056 39.2796 41.7734 39.0145 42.4745 38.8155C43.6095 38.5172 44.6442 38.5835 45.8125 38.2854C46.3465 38.1528 46.8807 37.9871 47.4147 37.8214V37.5233C46.8141 36.9266 46.38 36.1314 45.7457 35.568C44.0434 34.1095 42.174 32.6848 40.238 31.4919C39.2031 30.8291 37.8679 30.3981 36.7664 29.8349C36.366 29.6358 35.6982 29.5366 35.4647 29.2052C34.8637 28.4761 34.5299 27.5152 34.096 26.6534C33.1283 24.8306 32.1933 22.8094 31.3588 20.8874C30.7582 19.5949 30.3909 18.3023 29.6565 17.1094C26.2184 11.4758 22.4798 8.0625 16.7384 4.71533C15.5033 4.01949 14.0348 3.72115 12.4659 3.35671C11.6316 3.32344 10.7969 3.25733 9.96236 3.22407C9.42836 2.99205 8.89416 2.36253 8.42675 2.0642C6.52448 0.871066 1.61737 -1.71354 0.215373 1.69975C-0.685928 3.8538 1.55057 5.97457 2.31826 7.06832C2.88597 7.83048 3.62016 8.69201 4.02076 9.55376C4.25447 10.1167 4.32105 10.7136 4.55476 11.3101C5.08896 12.7679 5.58945 14.392 6.29056 15.7508C6.65786 16.4467 7.05825 17.1758 7.52566 17.8053C7.79265 18.1697 8.25984 18.3356 8.36015 18.9321C7.89296 19.5949 7.85945 20.589 7.59224 21.4175C6.39065 25.1622 6.85805 29.8017 8.56035 32.5522C9.09434 33.3804 10.3629 35.2035 12.0652 34.5075C13.5673 33.911 13.2335 32.022 13.6674 30.3651C13.7678 29.9671 13.7009 29.7023 13.9011 29.4372C13.9013 29.4703 13.9011 29.5035 13.9011 29.5035C14.3685 30.4314 14.8357 31.3262 15.2696 32.254C16.3045 33.8777 18.1069 35.5679 19.609 36.6948C20.4104 37.291 21.0445 38.3185 22.0459 38.6831V38.5835H21.9791C21.7787 38.2852 21.4784 38.1528 21.2114 37.9207C20.6106 37.3243 19.9428 36.5952 19.4756 35.9324C18.0738 34.0765 16.8385 32.022 15.737 29.901C15.203 28.8738 14.7356 27.747 14.3017 26.7198C14.1013 26.3219 14.1013 25.7256 13.7675 25.5269C13.2668 26.2557 12.5326 26.8855 12.1653 27.7803C11.5315 29.2052 11.4644 30.9615 11.2307 32.7842C11.0974 32.8174 11.1639 32.7842 11.0971 32.8505C10.0292 32.5852 9.66185 31.4919 9.26124 30.5638C8.25984 28.211 8.09294 24.4331 8.96095 21.7159C9.19465 21.0198 10.196 18.8327 9.79544 18.1699C9.59525 17.5402 8.92744 17.1758 8.56034 16.6787C8.12645 16.0489 7.65904 15.2537 7.35875 14.5577C6.55755 12.702 6.15695 10.6473 5.28916 8.79139C4.88856 7.92965 4.18766 7.03506 3.62016 6.23985C2.98607 5.34505 2.28496 4.71533 1.78426 3.65483C1.61757 3.29038 1.38366 2.69392 1.65065 2.29621C1.71746 2.03114 1.85085 1.93176 2.11806 1.86544C2.55195 1.50079 3.78705 1.96482 4.22094 2.16357C5.45604 2.66044 6.49074 3.12469 7.52564 3.82052C7.99283 4.15191 8.49353 4.78164 9.09433 4.94734H9.79543C10.8636 5.17914 12.0652 5.01366 13.0666 5.31178C14.8359 5.87498 16.4379 6.70367 17.8734 7.59847C22.2463 10.349 25.8511 14.2595 28.288 18.9321C28.6886 19.694 28.8553 20.3903 29.2226 21.1855C29.9237 22.8094 30.7915 24.4664 31.4924 26.057C32.1933 27.6144 32.8609 29.2052 33.8623 30.4977C34.3632 31.1934 36.3658 31.558 37.2671 31.9227C37.9347 32.2208 38.9696 32.4861 39.5704 32.8505C40.7052 33.5461 41.8402 34.3418 42.9084 35.1039C43.4426 35.5014 45.1114 36.3301 45.2117 36.9927L45.2117 36.9927Z" fill="#00546B"/>
<path d="M11.1637 8.1947C10.5962 8.1947 10.1958 8.26123 9.7952 8.36061C9.7952 8.36044 9.7952 8.39388 9.7952 8.42693H9.862C10.1292 8.95707 10.5962 9.32173 10.93 9.78555C11.1972 10.3157 11.4307 10.846 11.6979 11.3764C11.7312 11.3431 11.7645 11.3101 11.7645 11.3101C12.2321 10.9785 12.4656 10.4483 12.4656 9.65312C12.2652 9.4211 12.2319 9.18909 12.065 8.95707C11.8648 8.62547 11.4307 8.45998 11.1637 8.1947Z" fill="#00546B"/>
</g>
<defs>
<clipPath id="clip0_571_536">
<rect width="49.1163" height="48" fill="white"/>
</clipPath>
</defs>
</svg>
