<svg width="54" height="48" viewBox="0 0 54 48" fill="none" xmlns="http://www.w3.org/2000/svg">
<g clip-path="url(#clip0_571_477)">
<path d="M43.8507 15.5418C43.2974 15.3494 42.7241 15.1673 42.1339 14.9951C42.2309 14.595 42.3199 14.2 42.3991 13.8118C43.6987 7.43682 42.849 2.3011 39.9474 0.610209C37.1651 -1.01114 32.6149 0.679376 28.0194 4.7208C27.5774 5.10942 27.1343 5.52087 26.6914 5.95208C26.3962 5.66678 26.1015 5.39107 25.8076 5.12736C20.9914 0.806006 16.1639 -1.01507 13.2651 0.680719C10.4855 2.30676 9.66234 7.13483 10.8322 13.1764C10.9452 13.76 11.0772 14.3559 11.2265 14.9618C10.5433 15.1578 9.88372 15.3667 9.25261 15.589C3.60611 17.5784 0 20.6961 0 23.9301C0 27.2702 3.87116 30.6203 9.75243 32.6517C10.2166 32.812 10.6981 32.9635 11.1945 33.1074C11.0334 33.7627 10.8932 34.4049 10.7756 35.0313C9.66015 40.968 10.5313 45.682 13.3035 47.2978C16.1669 48.9664 20.9726 47.2513 25.6521 43.1177C26.022 42.791 26.3932 42.4445 26.765 42.0813C27.247 42.5503 27.7282 42.9942 28.2069 43.4105C32.7395 47.3521 37.2162 48.9437 39.9859 47.3234C42.8465 45.65 43.7762 40.586 42.5692 34.4249C42.477 33.9543 42.3698 33.4736 42.2493 32.9844C42.5868 32.8835 42.9181 32.7794 43.2411 32.6712C49.3553 30.6241 53.3333 27.3148 53.3333 23.9301C53.3333 20.6844 49.6109 17.5456 43.8507 15.5418ZM42.5246 30.4858C42.233 30.5834 41.9337 30.6777 41.6288 30.7691C40.9538 28.6098 40.0429 26.3136 38.9281 23.9413C39.9919 21.6255 40.8676 19.3588 41.5237 17.2134C42.0693 17.373 42.5988 17.5412 43.1091 17.7188C48.0444 19.4357 51.055 21.9741 51.055 23.9301C51.055 26.0136 47.8037 28.7182 42.5246 30.4858ZM40.3341 34.872C40.8678 37.5964 40.9441 40.0595 40.5905 41.9851C40.2729 43.7153 39.6341 44.8689 38.8442 45.3309C37.1635 46.314 33.5691 45.0361 29.6927 41.6652C29.2484 41.2788 28.8008 40.8662 28.3517 40.4295C29.8545 38.7687 31.3564 36.8378 32.8223 34.6935C35.4006 34.4623 37.8364 34.0843 40.0454 33.5683C40.1542 34.0118 40.2509 34.4467 40.3341 34.872ZM18.1825 45.161C16.5404 45.747 15.2325 45.7638 14.4419 45.3032C12.7596 44.3226 12.0602 40.5377 13.0142 35.4606C13.1235 34.8792 13.2535 34.2819 13.4034 33.6714C15.5882 34.1596 18.0062 34.5109 20.5907 34.7226C22.0664 36.821 23.6117 38.7497 25.169 40.4385C24.8288 40.7704 24.4899 41.0864 24.1529 41.3841C22.0836 43.2119 20.01 44.5087 18.1825 45.161ZM10.4893 30.473C7.88871 29.5748 5.74105 28.4074 4.26893 27.1336C2.94614 25.9888 2.27829 24.8523 2.27829 23.9301C2.27829 21.9676 5.17364 19.4645 10.0026 17.7631C10.5885 17.5567 11.2019 17.3621 11.8384 17.1794C12.5058 19.3731 13.3812 21.6668 14.4377 23.9861C13.3676 26.3399 12.4797 28.6701 11.8057 30.8896C11.3519 30.7578 10.9123 30.6191 10.4893 30.473ZM13.0681 12.7343C12.0658 7.55798 12.7315 3.65317 14.4066 2.67332C16.1909 1.62949 20.1363 3.11777 24.2948 6.84905C24.5606 7.08753 24.8274 7.33715 25.0951 7.5954C23.5455 9.27679 22.0143 11.191 20.5517 13.277C18.0434 13.5119 15.6423 13.8893 13.4348 14.3947C13.296 13.8305 13.173 13.2762 13.0681 12.7343ZM36.0737 18.4747C35.546 17.5536 35.0042 16.6542 34.4519 15.7794C36.1536 15.9968 37.7839 16.2854 39.315 16.6385C38.8554 18.1272 38.2824 19.6837 37.608 21.2793C37.1243 20.3512 36.6126 19.4154 36.0737 18.4747ZM26.6921 9.24082C27.743 10.3913 28.7954 11.6759 29.8306 13.0696C28.7875 13.0198 27.7314 12.9939 26.6667 12.9939C25.612 12.9939 24.5637 13.0192 23.5271 13.0681C24.5632 11.6874 25.6248 10.4046 26.6921 9.24082ZM17.2504 18.4907C16.7232 19.4144 16.221 20.3451 15.7449 21.2776C15.0814 19.6875 14.5138 18.1239 14.0501 16.6141C15.5718 16.27 17.1945 15.9887 18.8853 15.7754C18.3252 16.6583 17.779 17.5643 17.2504 18.4905V18.4907ZM18.934 32.249C17.1871 32.0521 15.54 31.7852 14.0187 31.4506C14.4898 29.9139 15.0699 28.3169 15.7474 26.6926C16.2248 27.6243 16.729 28.5555 17.2594 29.4812H17.2595C17.7998 30.4243 18.3595 31.3481 18.934 32.249ZM26.7551 38.7817C25.6753 37.6043 24.5982 36.302 23.5462 34.9011C24.5674 34.9416 25.6085 34.9623 26.6667 34.9623C27.7537 34.9623 28.8284 34.9375 29.8861 34.8899C28.8476 36.3161 27.7989 37.6205 26.7551 38.7817ZM37.6298 26.6098C38.3426 28.2516 38.9435 29.8403 39.4207 31.3508C37.8743 31.7073 36.2047 31.9944 34.4456 32.2078C34.9993 31.3212 35.5458 30.4064 36.0828 29.4654C36.6261 28.5133 37.142 27.5599 37.6298 26.6098ZM34.1093 28.3152C33.2756 29.7759 32.4197 31.1704 31.5508 32.4867C29.9681 32.601 28.3331 32.6599 26.6667 32.6599C25.007 32.6599 23.3925 32.6078 21.8379 32.5058C20.934 31.1723 20.0595 29.7737 19.2311 28.3277H19.2313C18.4051 26.8857 17.6447 25.4314 16.9556 23.9854C17.6445 22.5359 18.4029 21.0801 19.2243 19.6406L19.2241 19.6409C20.0478 18.1976 20.9146 16.8058 21.8102 15.4806C23.3963 15.3595 25.0228 15.2962 26.6666 15.2962H26.6667C28.3178 15.2962 29.9464 15.3599 31.5321 15.4822C32.414 16.7977 33.2749 18.1849 34.1018 19.6284C34.938 21.0881 35.7062 22.5343 36.401 23.9527C35.7083 25.3954 34.9418 26.8561 34.1093 28.3152ZM38.8093 2.60483C40.5953 3.64559 41.2898 7.843 40.1677 13.3471C40.0961 13.6983 40.0155 14.056 39.928 14.4186C37.7153 13.9026 35.3126 13.5187 32.7969 13.2802C31.3315 11.1714 29.8128 9.25415 28.2885 7.59434C28.6983 7.19593 29.1076 6.81604 29.5151 6.45755C33.4525 2.99488 37.1326 1.62776 38.8093 2.60483ZM26.6667 19.1175C29.2969 19.1175 31.4291 21.2721 31.4291 23.9301C31.4291 26.588 29.2969 28.7427 26.6667 28.7427C24.0365 28.7427 21.9042 26.588 21.9042 23.9301C21.9042 21.2721 24.0365 19.1175 26.6667 19.1175Z" fill="#00D8FF"/>
</g>
<defs>
<clipPath id="clip0_571_477">
<rect width="53.3333" height="48" fill="white"/>
</clipPath>
</defs>
</svg>
