<svg width="18" height="18" viewBox="0 0 18 18" fill="none" xmlns="http://www.w3.org/2000/svg">
<rect width="18" height="18" rx="9" fill="black"/>
<path d="M10.7129 10.8872V3.33594H12.1191V10.8872C12.1191 11.5903 11.9751 12.1836 11.687 12.667C11.3989 13.1504 11.001 13.519 10.4932 13.7729C9.99023 14.022 9.41162 14.1465 8.75732 14.1465C8.10303 14.1465 7.52197 14.0342 7.01416 13.8096C6.50635 13.585 6.1084 13.2432 5.82031 12.7842C5.53223 12.3252 5.38818 11.7466 5.38818 11.0483H6.80176C6.80176 11.4976 6.88477 11.8662 7.05078 12.1543C7.2168 12.4424 7.44629 12.6548 7.73926 12.7915C8.03711 12.9282 8.37646 12.9966 8.75732 12.9966C9.12842 12.9966 9.46045 12.9185 9.75342 12.7622C10.0513 12.6011 10.2856 12.3643 10.4565 12.0518C10.6274 11.7344 10.7129 11.3462 10.7129 10.8872Z" fill="#FFDB70"/>
</svg>
